<?xml version="1.0" standalone="no"?>
<!DOCTYPE svg PUBLIC "-//W3C//DTD SVG 20010904//EN"
 "http://www.w3.org/TR/2001/REC-SVG-20010904/DTD/svg10.dtd">
<svg version="1.0" xmlns="http://www.w3.org/2000/svg"
 width="300.000000pt" height="154.000000pt" viewBox="0 0 300.000000 154.000000"
 preserveAspectRatio="xMidYMid meet">
<metadata>
Created by potrace 1.10, written by Peter Selinger 2001-2011
</metadata>
<g transform="translate(0.000000,154.000000) scale(0.100000,-0.100000)"
fill="#000000" stroke="none">
<path d="M290 1467 c-101 -28 -188 -119 -210 -220 -8 -36 -10 -201 -8 -522 l3
-470 28 -57 c34 -69 91 -121 164 -148 53 -20 77 -20 1247 -20 1367 0 1261 -7
1356 88 92 93 90 77 90 632 0 396 -3 485 -15 527 -20 68 -88 143 -157 174
l-53 24 -1200 2 c-920 1 -1211 -1 -1245 -10z m2476 -42 c50 -19 106 -71 137
-128 22 -42 22 -47 25 -519 2 -314 -1 -491 -8 -517 -17 -65 -69 -131 -130
-165 l-55 -31 -1215 0 -1215 0 -47 23 c-26 13 -63 41 -83 64 -73 80 -70 58
-70 603 0 542 -2 522 67 600 63 73 88 79 323 85 116 3 665 4 1220 2 878 -2
1015 -4 1051 -17z"/>
<path d="M655 1405 c-215 -47 -418 -228 -486 -433 -12 -37 -27 -70 -33 -74 -8
-6 -8 -10 0 -15 9 -6 9 -24 2 -66 -7 -38 -7 -81 0 -125 7 -48 6 -69 -2 -75 -7
-5 -5 -11 7 -18 9 -5 17 -17 17 -25 0 -31 51 -138 95 -199 l45 -64 148 144
147 144 63 1 c56 0 77 10 53 24 -5 3 -30 67 -57 141 -34 95 -53 135 -64 135
-11 0 -28 -37 -59 -122 -49 -141 -65 -170 -86 -162 -12 5 -15 29 -15 131 0
108 2 128 18 139 15 12 11 13 -33 14 l-51 0 -29 -87 c-16 -49 -32 -91 -35 -95
-3 -5 -22 35 -40 87 -35 94 -35 95 -69 95 -33 0 -33 1 -18 23 8 12 34 58 56
102 22 44 57 101 78 126 48 58 146 136 218 172 66 34 180 68 201 60 12 -4 14
-43 14 -230 0 -145 4 -232 11 -245 23 -43 29 10 29 260 l0 252 -32 -1 c-18 0
-60 -7 -93 -14z m-429 -692 c21 -62 42 -113 46 -113 3 0 24 53 46 118 l40 117
1 -104 c1 -88 -2 -106 -16 -117 -15 -11 -2 -13 92 -13 94 0 107 2 93 13 -19
14 -22 35 -12 74 5 18 13 22 45 22 41 0 43 -2 63 -67 6 -18 3 -23 -12 -23 -28
0 -94 -51 -204 -158 -98 -95 -98 -95 -119 -76 -12 10 -39 55 -60 99 -22 43
-44 84 -49 89 -16 16 -12 26 10 26 11 0 20 4 20 9 0 5 -9 11 -20 14 -18 5 -20
14 -20 113 0 60 4 104 9 99 4 -6 26 -61 47 -122z m357 62 l16 -45 -34 0 -34 0
16 45 c8 25 16 45 18 45 2 0 10 -20 18 -45z"/>
<path d="M870 1182 c0 -218 7 -282 24 -236 3 9 6 112 6 230 l0 214 23 0 c40 0
135 -29 195 -59 152 -77 240 -170 328 -346 46 -93 54 -104 50 -70 -3 22 -26
82 -51 133 -53 107 -151 214 -250 274 -71 43 -187 84 -267 93 l-58 7 0 -240z"/>
<path d="M2073 1390 c-157 -37 -294 -198 -310 -364 -6 -68 17 -189 40 -203 6
-4 8 2 3 18 -28 99 -34 132 -30 156 12 81 16 93 25 88 5 -4 5 -13 0 -23 -8
-17 -7 -114 2 -164 3 -15 15 -40 27 -55 13 -16 20 -21 17 -13 -45 116 -47 218
-6 304 32 69 111 151 176 182 78 39 195 45 275 15 104 -40 187 -122 224 -223
24 -66 22 -172 -4 -242 -17 -43 -19 -56 -8 -47 8 7 18 26 21 42 4 16 11 29 17
29 6 0 8 7 4 15 -7 19 3 47 15 39 5 -3 6 -11 2 -17 -4 -6 -8 -18 -9 -27 -1 -8
-5 -23 -9 -32 -4 -11 -3 -18 3 -18 11 0 27 43 37 102 14 86 -33 227 -104 310
-68 80 -192 138 -295 138 -55 0 -42 -8 24 -14 30 -3 56 -10 58 -15 2 -5 12 -7
22 -4 11 3 20 0 20 -6 0 -6 3 -11 8 -10 15 2 52 -14 52 -22 0 -13 -14 -11 -28
3 -7 7 -12 9 -12 6 0 -4 -17 0 -37 8 -23 10 -66 16 -117 15 -69 0 -121 -5
-121 -11 0 -1 -11 -3 -24 -6 -14 -2 -30 -9 -38 -15 -7 -6 -13 -7 -13 -2 0 12
90 51 138 59 8 1 16 5 20 8 7 8 -25 6 -65 -4z m-149 -116 c-15 -13 -30 -22
-33 -19 -7 8 42 53 53 47 4 -2 -4 -15 -20 -28z m-67 -83 c-32 -48 -60 -62 -32
-15 8 13 22 35 30 49 9 14 20 23 25 20 4 -3 -6 -27 -23 -54z m663 -15 c0 -17
-22 -2 -35 24 -24 46 -17 58 10 18 14 -20 25 -39 25 -42z m37 -88 c0 -7 4 -28
7 -46 4 -19 3 -31 -2 -28 -12 7 -24 65 -16 77 7 12 11 11 11 -3z"/>
<path d="M2091 1158 c-150 -74 -129 -304 33 -349 29 -8 29 -7 11 6 -11 8 -25
19 -32 25 -7 5 -17 10 -23 10 -5 0 -10 5 -10 11 0 5 17 1 38 -11 37 -21 42
-21 95 -7 47 11 57 12 57 0 0 -7 -7 -13 -15 -13 -8 0 -15 -4 -15 -10 0 -6 10
-5 25 2 20 9 23 14 13 31 -9 17 -8 19 6 14 10 -4 15 -3 12 2 -3 4 3 17 13 27
9 11 16 24 14 30 -2 6 4 17 13 25 15 12 16 11 9 -11 -4 -14 -12 -30 -17 -37
-5 -7 -5 -13 0 -17 13 -8 42 67 42 107 -1 70 -52 142 -122 172 -51 21 -95 19
-147 -7z m141 -7 c13 -5 32 -17 44 -27 27 -24 59 -74 48 -74 -5 0 -18 14 -29
31 -24 35 -77 64 -122 64 -18 1 -35 4 -39 8 -10 10 70 9 98 -2z m6 -41 c42
-26 72 -76 72 -120 0 -70 -69 -140 -139 -140 -137 0 -183 196 -61 261 45 24
87 24 128 -1z m-213 -153 c4 -13 7 -31 9 -41 1 -10 9 -22 17 -27 8 -5 9 -9 3
-9 -6 0 -17 7 -24 15 -7 8 -10 15 -7 15 3 0 -1 16 -9 35 -8 20 -10 35 -4 35 5
0 12 -10 15 -23z"/>
<path d="M800 892 c-89 -48 -99 -223 -16 -277 38 -25 89 -29 124 -11 18 9 32
12 32 6 0 -5 5 -10 10 -10 6 0 10 25 10 55 0 49 -2 55 -21 55 -17 0 -19 -3
-10 -14 27 -32 -27 -94 -70 -81 -55 18 -79 152 -42 230 31 65 104 53 117 -19
10 -55 26 -43 26 19 0 30 -4 55 -10 55 -5 0 -10 -5 -10 -11 0 -5 -10 -3 -22 5
-30 21 -76 20 -118 -2z"/>
<path d="M1320 888 c-46 -31 -70 -81 -70 -144 0 -123 125 -193 215 -122 50 39
68 117 45 200 -21 75 -123 111 -190 66z m95 -15 c26 -25 35 -59 35 -126 0
-109 -50 -168 -99 -116 -24 26 -35 90 -29 159 8 85 52 124 93 83z"/>
<path d="M1368 822 c-31 -6 -19 -22 17 -22 19 0 35 4 35 9 0 11 -29 18 -52 13z"/>
<path d="M1357 704 c-11 -12 3 -24 28 -24 13 0 26 4 29 9 10 15 -43 29 -57 15z"/>
<path d="M993 886 c14 -11 17 -31 17 -136 0 -105 -3 -125 -17 -136 -16 -12 -9
-13 50 -14 38 0 67 4 67 10 0 6 -7 10 -15 10 -12 0 -15 13 -15 60 0 43 4 60
13 60 19 0 37 -21 37 -44 0 -12 5 -38 10 -58 8 -29 17 -38 40 -43 30 -7 70 8
70 26 0 6 -9 8 -19 4 -17 -5 -21 1 -26 40 -5 31 -15 51 -33 65 -13 11 -20 20
-13 20 23 0 51 40 51 73 0 62 -29 77 -147 77 -75 -1 -85 -3 -70 -14z m143 -31
c3 -12 4 -37 2 -55 -2 -27 -9 -35 -30 -41 l-28 -7 0 63 c0 42 4 65 13 68 20 7
37 -4 43 -28z"/>
<path d="M877 854 c-4 -4 -7 -18 -7 -31 0 -18 5 -23 25 -23 14 0 25 5 25 10 0
6 -4 10 -8 10 -5 0 -13 9 -18 21 -5 11 -13 17 -17 13z"/>
<path d="M2323 852 c-25 -4 -32 -22 -8 -22 12 0 15 -17 15 -90 0 -73 -3 -90
-15 -90 -8 0 -15 -7 -15 -15 0 -9 9 -15 25 -15 22 0 25 4 25 33 0 19 3 37 7
40 11 12 43 -25 43 -50 0 -25 25 -30 65 -13 19 7 19 8 -5 18 -14 5 -38 23 -53
40 l-28 29 27 22 c15 11 33 21 40 21 8 0 11 6 8 15 -6 16 -31 19 -58 9 -9 -3
-13 -10 -10 -15 6 -11 -13 -39 -27 -39 -4 0 -9 28 -11 63 -3 58 -4 62 -25 59z"/>
<path d="M1566 835 c-3 -8 -3 -22 0 -30 4 -9 0 -15 -10 -15 -9 0 -16 -4 -16
-10 0 -5 6 -10 14 -10 10 0 12 -12 8 -48 -7 -80 49 -119 118 -82 31 17 15 30
-24 18 -54 -17 -66 -7 -66 57 l0 55 40 0 c22 0 40 5 40 10 0 6 -18 10 -40 10
-36 0 -40 3 -40 24 0 29 -15 42 -24 21z"/>
<path d="M2544 820 c-28 -11 -54 -48 -54 -78 0 -30 35 -98 55 -105 8 -4 15
-13 15 -21 0 -29 36 -8 68 38 43 65 44 114 1 150 -32 27 -50 30 -85 16z m78
-37 c22 -20 23 -51 3 -80 -19 -27 -65 -34 -87 -13 -19 18 -41 70 -33 78 3 3 5
-1 5 -9 1 -8 8 -2 16 14 17 32 66 37 96 10z"/>
<path d="M1836 779 c-21 -17 -26 -18 -26 -5 0 11 -9 16 -30 16 -16 0 -30 -4
-30 -10 0 -5 7 -10 15 -10 12 0 15 -13 15 -60 0 -51 -3 -60 -16 -58 -10 2 -19
-3 -21 -9 -4 -10 14 -13 67 -13 53 0 71 3 67 13 -2 7 -17 11 -36 9 -30 -2 -31
-1 -31 42 0 36 5 47 25 60 16 10 34 14 50 10 29 -7 31 -2 9 20 -20 21 -26 20
-58 -5z"/>
<path d="M1961 791 c-14 -4 -26 -12 -29 -19 -3 -9 9 -10 43 -5 35 4 49 2 56
-8 15 -25 10 -29 -35 -29 -27 0 -51 -6 -60 -16 -19 -18 -21 -55 -4 -72 15 -15
63 -16 89 -2 13 7 19 7 19 0 0 -13 37 -13 45 0 3 6 -1 10 -9 10 -13 0 -16 12
-16 59 0 51 -3 62 -22 75 -24 17 -38 18 -77 7z m79 -93 c0 -22 -33 -48 -62
-48 -33 0 -47 23 -28 45 15 18 90 21 90 3z"/>
<path d="M2195 792 c-93 -19 -82 -162 13 -162 39 0 82 19 82 37 0 17 -10 16
-34 -2 -45 -34 -106 -5 -106 51 0 48 95 79 107 34 8 -31 23 -24 23 11 0 20 -4
29 -12 26 -7 -2 -22 -1 -33 3 -11 3 -29 4 -40 2z"/>
<path d="M2695 780 c-3 -5 3 -10 14 -10 19 0 21 -6 21 -60 0 -58 -1 -60 -26
-60 -14 0 -23 -4 -19 -10 3 -5 35 -10 71 -10 36 0 64 4 64 10 0 6 -16 10 -36
10 -35 0 -35 0 -32 42 2 31 10 46 31 62 24 17 31 19 48 8 18 -12 20 -11 17 5
-4 24 -43 28 -74 9 -21 -15 -24 -15 -24 -1 0 17 -45 21 -55 5z"/>
<path d="M2480 609 c-14 -25 -16 -22 40 -38 116 -34 224 -114 236 -176 18 -97
-127 -198 -347 -240 -124 -24 -369 -22 -485 4 -112 24 -188 53 -249 93 -58 38
-85 80 -85 132 0 59 70 123 178 165 45 17 88 31 97 31 8 0 15 4 15 8 0 18 -13
20 -34 7 -12 -8 -31 -16 -41 -18 -25 -5 -63 -20 -116 -47 -28 -15 -40 -17 -36
-8 2 7 10 12 16 11 6 -2 11 2 11 9 0 6 3 9 6 5 3 -3 15 3 27 13 11 11 23 17
27 15 4 -3 14 3 21 12 12 14 11 15 -11 8 -34 -10 -102 -49 -140 -81 -41 -35
-70 -94 -70 -142 0 -108 159 -222 356 -258 29 -5 36 -3 29 5 -6 6 -23 12 -38
13 -15 1 -27 5 -27 8 0 3 -13 6 -28 7 -15 1 -41 9 -57 17 -27 14 -28 16 -7 16
12 0 22 -4 22 -9 0 -5 8 -8 18 -6 9 1 22 0 27 -4 6 -3 15 -6 20 -7 6 -1 24 -5
40 -9 65 -14 107 -17 275 -19 96 -2 183 1 193 6 12 6 17 5 17 -4 0 -9 2 -10 8
-1 8 13 72 25 72 13 0 -5 -12 -13 -27 -18 -27 -10 -27 -10 -4 -11 32 -1 197
55 247 84 95 55 148 150 126 223 -14 47 -76 110 -143 147 -65 35 -76 26 -13
-11 28 -17 42 -30 34 -32 -8 -3 -16 0 -18 7 -2 6 -12 11 -23 11 -10 0 -19 4
-19 8 0 5 -6 9 -14 9 -8 0 -35 8 -61 17 -37 15 -45 21 -40 37 8 26 -11 24 -25
-2z m-898 -182 c-17 -22 -4 -97 23 -132 29 -39 31 -47 10 -39 -8 4 -12 10 -9
15 3 5 1 9 -3 9 -27 0 -56 131 -32 145 5 4 6 11 3 17 -4 7 -2 8 5 4 7 -5 9
-12 3 -19z m1202 -23 c13 -34 -5 -104 -26 -104 -5 0 -6 6 -1 13 4 6 9 21 11
32 2 11 5 27 7 35 1 8 -2 21 -8 28 -6 8 -6 12 1 12 5 0 13 -7 16 -16z m-169
-218 c-26 -19 -85 -39 -93 -31 -9 9 20 26 35 20 7 -2 15 0 19 6 7 12 47 29 53
23 3 -2 -4 -10 -14 -18z"/>
<path d="M1462 558 c-17 -36 -32 -69 -32 -72 0 -4 -20 -39 -45 -78 -53 -81
-35 -86 -175 50 -85 84 -150 134 -150 116 0 -7 267 -267 279 -272 8 -3 105
144 124 188 31 74 39 99 35 116 -2 12 -15 -5 -36 -48z"/>
<path d="M1935 564 c21 -33 45 -70 54 -84 68 -109 114 -160 151 -171 72 -22
108 7 217 171 61 91 79 125 64 115 -7 -4 -18 -2 -25 4 -10 8 -30 -16 -90 -105
-85 -125 -110 -148 -149 -139 -27 7 -34 16 -126 153 -34 50 -64 92 -66 92 -5
0 7 -44 14 -50 3 -3 16 -19 28 -37 16 -22 19 -34 11 -39 -6 -4 -8 -3 -4 4 3 5
2 12 -2 14 -5 1 -27 29 -50 60 -56 77 -73 84 -27 12z m425 -39 c0 -8 -8 -23
-17 -33 -10 -10 -25 -30 -33 -46 -8 -15 -24 -38 -36 -51 -11 -12 -24 -31 -28
-40 -3 -10 -9 -15 -13 -11 -6 5 14 38 49 81 24 30 59 82 64 98 8 21 14 22 14
2z m-306 -93 c6 -8 28 -32 48 -54 33 -36 41 -40 78 -36 24 2 39 0 37 -6 -2 -6
-13 -10 -25 -9 -12 0 -30 1 -40 2 -33 2 -123 100 -121 132 0 12 2 11 6 -1 3
-8 11 -20 17 -28z"/>
<path d="M665 533 c-38 -37 -121 -117 -183 -177 l-113 -110 23 -17 c103 -78
226 -125 354 -136 173 -15 308 13 445 93 l77 44 -127 123 c-185 181 -241 231
-247 224 -9 -9 24 -46 179 -196 76 -74 136 -139 134 -145 -8 -27 -139 -85
-277 -122 -79 -22 -233 -11 -265 17 -5 5 -19 9 -31 9 -26 0 -156 60 -194 90
l-25 19 168 166 c92 92 167 171 167 176 0 18 -17 7 -85 -58z"/>
</g>
</svg>
